<?xml version="1.0" standalone="no"?>
<!DOCTYPE svg PUBLIC "-//W3C//DTD SVG 20010904//EN"
 "http://www.w3.org/TR/2001/REC-SVG-20010904/DTD/svg10.dtd">
<svg version="1.0" xmlns="http://www.w3.org/2000/svg"
 width="189.000000pt" height="91.000000pt" viewBox="0 0 189.000000 91.000000"
 preserveAspectRatio="xMidYMid meet">

<g transform="translate(0.000000,91.000000) scale(0.100000,-0.100000)"
fill="#000000" stroke="none">
<path d="M54 889 l26 -20 0 -180 0 -181 -29 -29 -29 -29 64 0 65 0 -20 26
c-19 24 -21 40 -21 183 0 104 4 151 10 141 5 -8 11 -80 12 -160 l2 -145 5 115
6 115 49 -135 c27 -74 53 -138 59 -142 6 -4 2 -19 -11 -43 -28 -47 -31 -115
-6 -152 10 -15 17 -31 16 -36 -1 -4 1 -7 6 -7 8 0 30 -41 54 -98 7 -18 22 -35
32 -38 10 -4 28 -17 40 -30 12 -14 34 -27 50 -30 16 -3 33 -7 38 -10 4 -3 8
-1 8 4 0 6 10 10 23 10 50 -1 103 28 130 69 4 7 13 18 20 25 41 45 51 62 53
93 2 18 -2 38 -9 43 -8 7 -11 30 -7 69 5 57 6 58 40 64 34 6 34 6 5 7 -16 1
-48 -3 -70 -7 -32 -7 -34 -9 -12 -10 25 -1 27 -4 27 -47 l0 -46 -31 6 c-17 3
-36 6 -42 6 -6 0 -7 19 -4 52 4 28 3 47 -2 42 -13 -14 -21 -98 -11 -113 9 -15
2 -27 -43 -69 -39 -37 -68 -37 -102 -2 -25 26 -28 37 -30 107 -3 101 18 143
72 143 32 0 34 2 22 18 -11 14 -10 13 9 -2 12 -11 22 -25 22 -32 0 -35 92 -42
116 -9 8 10 14 27 14 37 0 9 9 22 20 28 11 6 20 21 20 34 0 33 -108 96 -156
90 l-34 -4 0 121 c0 104 3 124 18 136 15 13 15 13 -5 3 -22 -10 -23 -16 -23
-135 0 -72 -4 -126 -10 -130 -6 -4 -10 41 -10 126 0 122 2 134 22 156 l21 23
-93 0 -93 0 23 -25 23 -24 -26 -68 c-68 -182 -69 -186 -78 -172 -6 9 -7 2 -3
-18 4 -19 2 -33 -3 -33 -6 0 -33 66 -61 146 l-51 146 27 23 27 24 -99 1 -99 0
27 -21z m355 -195 c1 -70 -3 -103 -9 -99 -6 4 -18 1 -26 -6 -22 -18 -57 -23
-52 -7 20 54 83 218 84 218 1 0 2 -48 3 -106z m141 -120 c29 -9 66 -14 82 -12
15 3 28 4 28 3 0 -1 -15 -32 -33 -69 l-34 -67 -17 45 c-21 56 -48 76 -99 76
-29 0 -46 -7 -67 -28 -75 -76 -59 -323 25 -378 44 -29 104 -22 137 15 15 17
30 43 34 58 10 46 13 53 24 53 16 0 12 -62 -8 -99 -64 -126 -258 -99 -323 44
-13 28 -19 64 -19 121 0 67 4 89 26 132 36 73 100 118 170 121 11 1 44 -6 74
-15z m117 -66 c-13 -24 -30 -54 -36 -66 -7 -13 -15 -21 -18 -18 -7 7 59 126
70 126 5 0 -2 -19 -16 -42z m-140 15 c10 -10 13 -14 7 -10 -7 5 -29 7 -50 5
-27 -2 -43 -11 -58 -31 -18 -25 -21 -42 -21 -140 0 -116 13 -163 54 -194 9 -7
11 -13 5 -13 -16 0 -41 31 -60 75 -26 60 -25 207 1 260 30 60 85 81 122 48z
m121 -371 c-38 -78 -137 -113 -213 -77 -23 11 -24 13 -6 9 45 -12 117 -6 150
10 38 20 67 64 78 120 7 37 8 38 11 13 2 -16 -7 -49 -20 -75z"/>
<path d="M381 679 c-6 -18 -9 -34 -7 -36 2 -2 9 10 15 28 6 18 9 34 7 36 -2 2
-9 -10 -15 -28z"/>
<path d="M356 615 c-3 -9 -6 -22 -5 -28 0 -7 5 -1 10 12 5 13 8 26 5 28 -2 2
-6 -3 -10 -12z"/>
<path d="M215 870 c-15 -16 -16 -24 -7 -42 11 -22 11 -22 6 3 -4 20 0 31 17
43 13 9 19 16 13 16 -6 0 -19 -9 -29 -20z"/>
<path d="M172 440 c7 -11 17 -20 22 -20 5 0 1 9 -9 20 -10 11 -20 20 -22 20
-2 0 2 -9 9 -20z"/>
<path d="M1384 390 c-28 -11 -64 -58 -64 -82 0 -25 26 -34 61 -21 26 10 29 9
30 -10 1 -20 2 -20 9 3 16 51 12 61 -15 35 -32 -33 -65 -33 -65 -2 0 31 40 67
74 67 15 0 25 4 21 10 -7 12 -22 12 -51 0z"/>
<path d="M1545 370 l-29 -30 -26 25 c-38 36 -48 31 -12 -6 25 -26 30 -37 25
-62 -4 -21 -3 -28 5 -23 7 4 12 17 12 29 0 11 14 36 32 54 17 18 29 35 27 38
-3 3 -18 -9 -34 -25z"/>
<path d="M486 368 c-3 -13 -5 -41 -4 -63 1 -30 2 -33 5 -12 4 22 9 27 33 27
16 0 32 5 36 11 4 8 -3 9 -26 4 -29 -6 -31 -5 -28 17 2 18 11 24 38 29 l35 6
-41 2 c-35 1 -43 -2 -48 -21z"/>
<path d="M777 383 c-3 -5 -8 -34 -11 -64 l-5 -54 10 45 11 45 30 -38 c16 -20
33 -37 38 -37 4 0 10 18 14 39 3 22 9 46 12 55 3 9 2 16 -4 16 -5 0 -13 -21
-17 -46 -5 -39 -9 -43 -21 -33 -9 7 -23 28 -33 47 -10 19 -21 31 -24 25z"/>
<path d="M922 373 c-5 -10 -12 -37 -16 -60 -6 -42 -6 -43 21 -42 16 0 37 4 48
9 14 7 9 8 -17 4 -33 -5 -38 -4 -38 14 0 15 10 23 38 31 37 10 37 10 4 7 -28
-2 -33 0 -30 18 2 15 13 23 38 27 l35 6 -37 2 c-26 1 -40 -4 -46 -16z"/>
<path d="M1036 374 c-20 -20 -13 -32 32 -51 34 -14 35 -16 17 -29 -10 -8 -30
-15 -44 -15 -19 -1 -21 -3 -8 -6 28 -7 78 17 75 36 -2 8 -18 20 -36 25 -47 13
-39 41 11 40 20 -1 34 3 31 7 -9 15 -62 10 -78 -7z"/>
<path d="M1155 376 c-25 -18 -13 -43 24 -51 49 -10 39 -30 -23 -46 -28 -8 -28
-8 7 -4 42 4 70 22 61 36 -3 5 -21 16 -40 24 -19 8 -34 19 -34 24 0 13 45 25
65 17 8 -3 15 -1 15 4 0 15 -53 12 -75 -4z"/>
<path d="M1596 353 c-3 -21 -9 -49 -13 -62 -4 -15 -2 -22 4 -18 6 4 14 26 17
49 l7 43 18 -33 17 -34 34 38 33 38 -7 -47 c-5 -31 -4 -47 3 -47 7 0 11 23 11
57 l0 57 -38 -37 -38 -37 -13 35 c-16 45 -27 44 -35 -2z"/>
</g>
</svg>
